<?xml version="1.0" encoding="UTF-8"?>
<svg version="1.1" xmlns="http://www.w3.org/2000/svg" width="1280" height="1280">
<path d="M0 0 C422.4 0 844.8 0 1280 0 C1280 422.4 1280 844.8 1280 1280 C857.6 1280 435.2 1280 0 1280 C0 857.6 0 435.2 0 0 Z " fill="#000000" transform="translate(0,0)"/>
<path d="M0 0 C1.24969826 0.04754677 1.24969826 0.04754677 2.52464294 0.09605408 C7.28962511 0.27876523 12.05390068 0.47051211 16.81762695 0.68359375 C31.47154729 1.32752372 46.11391035 1.64522145 60.7802124 1.82592773 C67.76118363 1.9136029 74.74193182 2.0157299 81.72265625 2.12109375 C82.4727597 2.13239697 83.22286316 2.14370018 83.99569702 2.15534592 C104.86202482 2.47329226 125.72580711 2.91693477 146.58952713 3.37187576 C149.61417502 3.43726597 152.63885229 3.50108007 155.6635437 3.56442261 C160.46565142 3.66517166 165.26765707 3.76988058 170.0696125 3.87763786 C171.84580341 3.91696237 173.62202193 3.95506221 175.39826775 3.9918232 C200.43738347 4.51342099 200.43738347 4.51342099 205.4375 7.0625 C207.93340195 10.33299221 207.46696515 12.37038496 207.25 16.4375 C206.84279174 18.80956751 206.36367776 21.17009589 205.82421875 23.515625 C205.67596146 24.16770935 205.52770416 24.8197937 205.37495422 25.49163818 C205.06152436 26.86388903 204.74451102 28.23532591 204.42407227 29.60595703 C203.94238191 31.66661531 203.47116164 33.72943651 203.00195312 35.79296875 C201.46389391 42.50956514 199.80041763 49.17442356 197.94946289 55.8125 C196.67182771 60.60731098 195.66765182 65.46225743 194.625 70.3125 C192.18065257 81.49981767 189.53925852 92.62885258 186.8125 103.75 C182.31236578 122.11545078 177.96294667 140.51178375 173.765625 158.94921875 C170.90824994 171.47527619 167.89529715 183.95238508 164.73480225 196.40490723 C161.99735673 207.20150446 159.49435847 218.02732682 157.24023438 228.93725586 C154.67286113 241.01463887 154.67286113 241.01463887 150.25 245.4375 C147 246 147 246 143.25 245.4375 C138.80069445 241.50048537 135.51276228 236.10810029 132.2734375 231.16796875 C131.82592636 230.49384949 131.37841522 229.81973022 130.91734314 229.12518311 C129.48222712 226.96129032 128.05361494 224.79318894 126.625 222.625 C125.63223133 221.12606758 124.63898346 219.62745244 123.64526367 218.12915039 C121.70532728 215.20288474 119.76766411 212.27513981 117.83251953 209.34570312 C114.75200875 204.68247657 111.6612806 200.02610585 108.5625 195.375 C108.11205322 194.69856445 107.66160645 194.02212891 107.19750977 193.32519531 C103.85495936 188.31723166 100.46917122 183.3395429 97.0625 178.375 C96.59175049 177.68849365 96.12100098 177.0019873 95.63598633 176.29467773 C93.6169176 173.22651698 93.6169176 173.22651698 91.25 170.4375 C88.03892657 170.02613114 85.43044488 169.75790102 82.54101562 171.42138672 C80.78017225 172.83475005 79.13794879 174.32090525 77.5 175.875 C76.26660741 176.98936955 75.03222269 178.10264194 73.796875 179.21484375 C73.19423828 179.76640137 72.59160156 180.31795898 71.97070312 180.88623047 C69.63401768 182.99282799 67.20241004 184.96759075 64.75 186.9375 C58.75473417 191.8092021 52.90454889 196.84271571 47.05273438 201.88476562 C23.1646182 222.46012029 23.1646182 222.46012029 12.8125 230.875 C8.00801746 234.78692265 3.29567369 238.79642528 -1.39794922 242.83984375 C-4.37060026 245.40019356 -7.35070035 247.95002365 -10.35546875 250.47265625 C-10.93635254 250.96072754 -11.51723633 251.44879883 -12.11572266 251.95166016 C-13.20884027 252.86862069 -14.30345449 253.78380154 -15.39990234 254.69677734 C-20.3284472 258.8090703 -20.3284472 258.8090703 -24.75 263.4375 C-24.3765366 266.89238267 -22.65885557 269.64512132 -20.9765625 272.63671875 C-20.40437988 273.66812988 -19.83219727 274.69954102 -19.24267578 275.76220703 C-18.62634277 276.87192871 -18.01000977 277.98165039 -17.375 279.125 C1.06948875 312.9453953 12.87076945 348.30715239 18.25 386.4375 C18.43022705 387.68539307 18.6104541 388.93328613 18.79614258 390.21899414 C20.35186971 401.65026625 20.60876416 412.97490022 20.5625 424.5 C20.55976578 425.91839676 20.55976578 425.91839676 20.55697632 427.365448 C20.50979662 441.92953004 19.8273004 456.0775365 17.25 470.4375 C17.07839355 471.46472168 16.90678711 472.49194336 16.72998047 473.55029297 C9.00250695 519.63200056 -8.60941227 563.98843616 -36.75 601.4375 C-37.15428223 601.9845459 -37.55856445 602.5315918 -37.97509766 603.09521484 C-44.08652831 611.36248112 -50.72652554 618.93859034 -57.75 626.4375 C-68.8281589 638.19319546 -68.8281589 638.19319546 -73.0625 653.125 C-73.07925781 654.09824219 -73.09601563 655.07148437 -73.11328125 656.07421875 C-72.29072741 663.68947524 -69.16150886 669.99630366 -65.1875 676.4375 C-64.29140743 677.92432296 -63.39558174 679.41130679 -62.5 680.8984375 C-62.04367187 681.64963867 -61.58734375 682.40083984 -61.1171875 683.17480469 C-58.93728118 686.78254964 -56.81546765 690.4239715 -54.6875 694.0625 C-52.25634616 698.20531177 -49.81483278 702.34101649 -47.33203125 706.453125 C-46.93959229 707.1032959 -46.54715332 707.7534668 -46.14282227 708.42333984 C-45.08201444 710.17692475 -44.01771507 711.9283962 -42.953125 713.6796875 C-37.12508587 723.47322441 -31.94651148 733.66171151 -26.58139038 743.71307373 C-23.25073677 749.94970857 -19.91108742 756.17944793 -16.46875 762.35546875 C-15.9739917 763.24371338 -15.4792334 764.13195801 -14.96948242 765.04711914 C-14.06877087 766.65739696 -13.16313626 768.26493702 -12.2512207 769.86889648 C-7.81858029 777.79141751 -3.18605732 786.09021468 -4.75 795.4375 C-6.00184244 798.80260122 -7.27588005 800.09416785 -10.5 801.625 C-11.15484375 801.94855469 -11.8096875 802.27210938 -12.484375 802.60546875 C-17.02633724 804.27346523 -21.64179078 804.56364046 -26.44482422 804.58276367 C-28.0871553 804.59233345 -28.0871553 804.59233345 -29.76266479 804.60209656 C-31.51596603 804.60376579 -31.51596603 804.60376579 -33.3046875 804.60546875 C-34.52020294 804.60879715 -35.73571838 804.61212555 -36.98806763 804.61555481 C-39.55502953 804.6206093 -42.12199797 804.62296359 -44.68896484 804.62280273 C-48.60395187 804.62498825 -52.51865657 804.6431574 -56.43359375 804.66210938 C-58.93229071 804.66504383 -61.430989 804.66702828 -63.9296875 804.66796875 C-65.09450653 804.67515427 -66.25932556 804.68233978 -67.45944214 804.68974304 C-83.32021298 804.64542949 -83.32021298 804.64542949 -89.33691406 799.08691406 C-95.3713281 792.04328911 -99.40785882 782.76535727 -103.875 774.6875 C-104.53752296 773.4924716 -105.20012188 772.29748532 -105.86279297 771.10253906 C-109.9001341 763.815559 -113.89850753 756.50786115 -117.875 749.1875 C-122.07219074 741.47015351 -126.32079271 733.78321498 -130.625 726.125 C-131.14852051 725.18817383 -131.67204102 724.25134766 -132.21142578 723.28613281 C-138.63998228 710.45034677 -138.63998228 710.45034677 -149.75 702.4375 C-157.95981229 701.59235953 -164.18476907 703.27562568 -171.6875 706.4375 C-206.19791175 720.10703229 -241.97300195 726.82578823 -279.00634766 726.75317383 C-282.34961928 726.75002391 -285.69199374 726.77353462 -289.03515625 726.79882812 C-308.9610397 726.85882212 -328.45114194 724.89365106 -347.875 720.375 C-349.15342773 720.08262451 -350.43185547 719.79024902 -351.74902344 719.48901367 C-367.10081521 715.88308006 -382.10559098 710.84905441 -396.84448242 705.26513672 C-397.80201416 704.90307129 -398.7595459 704.54100586 -399.74609375 704.16796875 C-400.5755249 703.84594482 -401.40495605 703.5239209 -402.25952148 703.19213867 C-408.14445428 701.40894808 -413.67157813 701.41718381 -419.1875 704.125 C-423.3972034 707.92400063 -426.33794427 712.21572496 -429.18359375 717.09375 C-429.82635254 718.18880859 -430.46911133 719.28386719 -431.13134766 720.41210938 C-431.63447479 721.27485474 -431.63447479 721.27485474 -432.14776611 722.1550293 C-433.91917261 725.19184499 -435.70304756 728.22129748 -437.48828125 731.25 C-437.84722473 731.85920288 -438.20616821 732.46840576 -438.57598877 733.09606934 C-441.92429833 738.76290567 -445.38506643 744.35688418 -448.875 749.9375 C-452.48240612 755.71965974 -455.98685038 761.50109763 -459.18554688 767.52197266 C-461.67471312 772.16080276 -464.27662398 776.73420568 -466.875 781.3125 C-467.39070557 782.22966797 -467.90641113 783.14683594 -468.43774414 784.09179688 C-471.9537746 790.27317771 -475.09619077 795.68729057 -481.1875 799.625 C-481.92871094 800.11355469 -482.66992188 800.60210938 -483.43359375 801.10546875 C-487.88319868 803.66417917 -491.44572723 804.68868466 -496.59082031 804.7121582 C-497.7426178 804.72169022 -498.89441528 804.73122223 -500.08111572 804.74104309 C-501.31762878 804.74013168 -502.55414185 804.73922028 -503.828125 804.73828125 C-505.10927185 804.74256638 -506.3904187 804.7468515 -507.71038818 804.75126648 C-510.4204116 804.75871459 -513.13030473 804.7584489 -515.84033203 804.75317383 C-519.29107913 804.7473981 -522.74128615 804.76427028 -526.19194412 804.7875185 C-529.50819216 804.80591686 -532.82432639 804.80206781 -536.140625 804.80078125 C-537.36904114 804.809991 -538.59745728 804.81920074 -539.86309814 804.82868958 C-547.64298067 804.78707243 -555.98863724 804.67166233 -561.8125 798.8125 C-564.3629502 794.3697803 -564.92555295 791.33907459 -563.75 786.4375 C-561.45745828 780.89461611 -558.64302041 775.68595112 -555.75 770.4375 C-554.93596652 768.93502118 -554.12216658 767.43241581 -553.30859375 765.9296875 C-548.87157458 757.79690059 -544.23349897 749.79998597 -539.4296875 741.87890625 C-535.15380657 734.81814305 -530.97435301 727.69923307 -526.77294922 720.59399414 C-522.941729 714.12004307 -519.0886373 707.66007652 -515.21461487 701.21168518 C-511.25568816 694.61970596 -507.32035565 688.01379961 -503.39282227 681.40307617 C-502.5880204 680.04891593 -501.78268006 678.69507556 -500.97680664 677.34155273 C-496.76848278 670.27330193 -492.5871216 663.19333234 -488.51953125 656.04296875 C-485.41650874 650.58845811 -482.24595119 645.1829288 -479 639.8125 C-477.95959577 638.08465929 -476.91923233 636.35679402 -475.87890625 634.62890625 C-475.35828613 633.76539551 -474.83766602 632.90188477 -474.30126953 632.01220703 C-471.84074171 627.92836592 -469.38936541 623.83904562 -466.9375 619.75 C-463.66665729 614.29661414 -460.39385123 608.84442193 -457.1171875 603.39453125 C-445.84977016 584.64752861 -434.71590102 565.82741758 -423.70996094 546.92578125 C-419.48352663 539.67503505 -415.19874109 532.46361413 -410.86103821 525.2789917 C-405.87478329 517.01451711 -400.91680742 508.7333484 -395.99609375 500.4296875 C-395.60070908 499.76254227 -395.2053244 499.09539703 -394.79795837 498.40803528 C-393.19018642 495.69448776 -391.58282369 492.98069988 -389.97680664 490.26611328 C-385.90054837 483.3777059 -381.80860115 476.5039243 -377.59375 469.69921875 C-373.86390805 463.66585532 -370.32321317 457.53768027 -366.8125 451.375 C-359.70650924 438.9800549 -352.32421307 426.76637693 -344.8785553 414.57339478 C-339.40196729 405.59874278 -334.01548614 396.56971668 -328.61474609 387.54931641 C-326.6899068 384.33721878 -324.76146028 381.12731132 -322.83203125 377.91796875 C-322.18580811 376.84264893 -321.53958496 375.7673291 -320.8737793 374.65942383 C-319.59569415 372.53271979 -318.31721906 370.40625005 -317.03833008 368.2800293 C-313.83578841 362.94698501 -310.67053708 357.59596071 -307.55712891 352.21044922 C-291.86444011 325.12840214 -291.86444011 325.12840214 -277.75 319.4375 C-273.22852498 318.6711483 -271.56949593 318.89116938 -267.75 321.4375 C-266.72591432 322.4128197 -265.72719505 323.41520364 -264.75 324.4375 C-264.20601562 324.9840625 -263.66203125 325.530625 -263.1015625 326.09375 C-254.41737951 335.36735717 -248.56659303 347.37689669 -242.5 358.4375 C-241.19209893 360.80839603 -239.88137614 363.17772664 -238.5703125 365.546875 C-238.24666718 366.1321698 -237.92302185 366.7174646 -237.58956909 367.32049561 C-230.59327926 379.95985163 -223.41975961 392.49518723 -215.8828125 404.8203125 C-211.874344 411.50496065 -208.28389771 418.43744536 -204.6015625 425.3046875 C-199.48678518 434.83744865 -194.35098802 444.25745017 -188.5625 453.3984375 C-186.11382207 457.50419488 -184.05121671 461.76323199 -181.96850586 466.06298828 C-178.84051108 472.4407193 -175.28289165 478.54007054 -171.60620117 484.61572266 C-166.66040561 492.92206516 -161.99259362 501.51614218 -163.75 511.4375 C-167.92234016 523.84472206 -180.79338663 533.75476185 -190.75 541.4375 C-191.8399281 542.31468635 -192.92842011 543.19365945 -194.015625 544.07421875 C-200.95581975 549.64091745 -207.40482257 554.71273018 -216.4375 555.9375 C-223.55798747 554.86270944 -227.55894 549.84212845 -231.75 544.4375 C-233.55122173 541.71810199 -235.15744103 538.9081 -236.75 536.0625 C-237.21148438 535.25232422 -237.67296875 534.44214844 -238.1484375 533.60742188 C-239.69216629 530.88956073 -241.22261307 528.16457654 -242.75 525.4375 C-243.30816406 524.44202148 -243.86632812 523.44654297 -244.44140625 522.42089844 C-246.80968477 518.19428952 -249.17503576 513.96604888 -251.5390625 509.73706055 C-255.2504279 503.10166648 -258.97111246 496.47221987 -262.75 489.875 C-263.17023438 489.1325 -263.59046875 488.39 -264.0234375 487.625 C-269.04539615 478.1209264 -269.04539615 478.1209264 -277.3125 472.1875 C-281.64546994 472.50262509 -282.6240497 473.44565112 -285.75 476.4375 C-287.82139995 479.22830609 -289.62985073 482.15844176 -291.4375 485.125 C-292.22459351 486.39476685 -292.22459351 486.39476685 -293.02758789 487.69018555 C-297.59464503 495.09273056 -302.01302495 502.58067309 -306.38574219 510.09912109 C-309.01014213 514.5974215 -311.66263436 519.07917043 -314.3125 523.5625 C-314.8691333 524.50496582 -315.4257666 525.44743164 -315.99926758 526.41845703 C-319.10228015 531.66759394 -322.2253518 536.90374228 -325.375 542.125 C-329.04911099 548.22023032 -332.61612117 554.37390274 -336.16796875 560.54101562 C-339.99986143 567.17840115 -343.90580744 573.77074792 -347.82388306 580.35748291 C-355.06455864 592.53249221 -355.06455864 592.53249221 -362.125 604.8125 C-362.47578613 605.42955811 -362.82657227 606.04661621 -363.18798828 606.68237305 C-366.70073774 612.95871161 -368.94089721 618.18625919 -367.75 625.4375 C-362.51360093 633.97089108 -348.93774221 635.80163468 -339.8125 638 C-324.35972014 641.58252203 -308.65321891 645.06920755 -292.75 645.4375 C-291.81575195 645.46859863 -290.88150391 645.49969727 -289.91894531 645.53173828 C-269.60208424 646.15013157 -247.29154269 645.78057253 -227.75 639.4375 C-226.49703125 639.05851563 -225.2440625 638.67953125 -223.953125 638.2890625 C-191.76285444 628.35269764 -163.351066 613.55487664 -137.75 591.4375 C-136.52796875 590.38175781 -136.52796875 590.38175781 -135.28125 589.3046875 C-124.23668418 579.55331451 -114.35139858 569.40524462 -105.75 557.4375 C-105.31864746 556.84517578 -104.88729492 556.25285156 -104.44287109 555.64257812 C-86.81442342 531.31416184 -74.42639205 505.46425091 -66.75 476.4375 C-66.33693604 474.8896582 -66.33693604 474.8896582 -65.91552734 473.31054688 C-58.28758371 443.18136514 -58.20488217 406.61128831 -65.75 376.4375 C-66.05459547 375.09011673 -66.35804835 373.74247446 -66.66015625 372.39453125 C-67.56211771 368.68907055 -68.60950817 365.07639366 -69.75 361.4375 C-69.96962402 360.72303711 -70.18924805 360.00857422 -70.41552734 359.27246094 C-78.61712815 332.98513649 -91.45181802 308.81037754 -108.75 287.4375 C-109.71607178 286.21873169 -109.71607178 286.21873169 -110.70166016 284.9753418 C-116.11412258 278.22437109 -121.86361908 271.97185694 -128 265.875 C-128.92458008 264.95605957 -129.84916016 264.03711914 -130.80175781 263.09033203 C-137.42524606 256.5838379 -144.04609384 250.65387984 -151.75 245.4375 C-152.41483398 244.98729492 -153.07966797 244.53708984 -153.76464844 244.07324219 C-162.17453506 238.41733738 -170.6843471 232.98877757 -179.75 228.4375 C-180.91660156 227.83679688 -182.08320312 227.23609375 -183.28515625 226.6171875 C-213.52134407 211.45765351 -246.3674561 204.01964419 -280.07739258 204.17675781 C-282.81288738 204.18750152 -285.54772775 204.17678223 -288.28320312 204.1640625 C-298.62987121 204.15554024 -308.52521741 204.73840793 -318.75 206.4375 C-319.65355225 206.57285156 -320.55710449 206.70820313 -321.48803711 206.84765625 C-359.03478557 212.59162408 -396.34158756 229.79672392 -424.7668457 255.08569336 C-428.55720648 258.4375 -428.55720648 258.4375 -430.75 258.4375 C-431.01804443 259.03224121 -431.28608887 259.62698242 -431.56225586 260.23974609 C-432.75979699 262.45562796 -433.95318983 263.85829528 -435.75390625 265.6015625 C-436.32947266 266.16617187 -436.90503906 266.73078125 -437.49804688 267.3125 C-438.09681641 267.89 -438.69558594 268.4675 -439.3125 269.0625 C-440.50349384 270.21910151 -441.69240005 271.37785778 -442.87890625 272.5390625 C-443.40556885 273.04775879 -443.93223145 273.55645508 -444.47485352 274.08056641 C-445.8664217 275.43150105 -445.8664217 275.43150105 -446.75 277.4375 C-447.41 277.4375 -448.07 277.4375 -448.75 277.4375 C-448.99492187 277.994375 -449.23984375 278.55125 -449.4921875 279.125 C-450.99364676 281.88544685 -452.83383718 284.04784597 -454.875 286.4375 C-481.52027022 318.68336841 -495.8199404 358.46654514 -501.75 399.4375 C-501.8538501 400.1394751 -501.9577002 400.8414502 -502.06469727 401.56469727 C-503.02277431 408.92490208 -503.03658357 416.33790016 -503.0625 423.75 C-503.06511841 424.46937744 -503.06773682 425.18875488 -503.07043457 425.92993164 C-503.0779968 445.51178405 -502.65645777 470.62458446 -493.75 488.4375 C-492.07166458 512.59452463 -498.64758489 535.75128919 -511.41699219 556.26074219 C-512.58158932 558.1624909 -513.60600349 560.0813035 -514.625 562.0625 C-518.47473167 568.1767797 -523.72812486 574.14464281 -530.75 576.4375 C-535.31853786 577.09014827 -538.70357512 576.9094171 -542.9375 575 C-549.00632823 569.47062317 -552.24136219 562.78284385 -555.2109375 555.234375 C-556.40352514 552.22553775 -557.70635618 549.27750412 -559.0390625 546.328125 C-591.71005693 473.76703177 -592.89132514 391.6949058 -565.56201172 317.19921875 C-558.49626105 298.58897591 -549.03178692 281.43442526 -538.75 264.4375 C-538.33782227 263.7470459 -537.92564453 263.0565918 -537.50097656 262.34521484 C-531.90797756 252.98707038 -525.91401123 244.67725733 -518.75 236.4375 C-517.18197957 234.50446497 -515.61931998 232.56706695 -514.0625 230.625 C-511.02510253 226.89898341 -507.88567787 223.4459173 -504.42578125 220.11328125 C-502.6129262 218.3004262 -500.96931185 216.39351038 -499.3125 214.4375 C-496.39492809 211.05960007 -493.28727907 208.14192336 -489.8828125 205.26171875 C-487.63299759 203.33742651 -485.47974748 201.32914215 -483.3125 199.3125 C-466.92156182 184.53792552 -448.38631034 173.05828598 -429.39160156 161.99902344 C-427.68821165 160.99210275 -425.99628444 159.96540576 -424.31933594 158.91503906 C-417.57951236 154.70914834 -410.56280763 151.52232575 -403.25 148.4375 C-402.63505676 148.17637421 -402.02011353 147.91524841 -401.38653564 147.64620972 C-391.32465334 143.38028323 -381.23002821 139.5388341 -370.75 136.4375 C-370.05390625 136.22577148 -369.3578125 136.01404297 -368.640625 135.79589844 C-342.1229951 127.77528319 -313.49248833 122.00779526 -285.75 121.4375 C-284.75516602 121.41171875 -283.76033203 121.3859375 -282.73535156 121.359375 C-263.49199278 120.91914946 -243.50182872 120.88648959 -224.77368164 125.92822266 C-222.453509 126.51211458 -220.12744573 126.94764266 -217.7734375 127.375 C-185.49800765 133.35587944 -150.05207473 144.86098734 -123.39453125 164.5703125 C-120.65292135 166.50604298 -117.83879149 168.24123694 -114.96972656 169.97900391 C-106.90667885 174.87133798 -99.87797826 180.2414132 -92.75 186.4375 C-90.83757627 187.98442686 -88.92099549 189.52623063 -87 191.0625 C-82.27552141 194.90928155 -77.94649564 199.02456619 -73.75 203.4375 C-69.88955021 201.79889181 -66.9456514 199.21878812 -63.8125 196.5 C-62.6498054 195.50382943 -61.48704306 194.50773791 -60.32421875 193.51171875 C-59.7317334 193.0017334 -59.13924805 192.49174805 -58.52880859 191.96630859 C-55.73879133 189.56841014 -52.93283163 187.18949141 -50.125 184.8125 C-49.58721924 184.35649414 -49.04943848 183.90048828 -48.49536133 183.43066406 C-44.15413184 179.75787218 -39.74831651 176.16810739 -35.33203125 172.5859375 C-31.96631328 169.78541574 -28.73688995 166.84848471 -25.52734375 163.87109375 C-23.75 162.4375 -23.75 162.4375 -21.75 162.4375 C-21.51667969 161.85871094 -21.28335938 161.27992188 -21.04296875 160.68359375 C-19.43629741 157.89254836 -17.60380828 156.47910555 -15.0625 154.5 C-10.354351 150.75446076 -5.77840668 146.8982759 -1.25 142.9375 C3.90499701 138.44157757 9.12514566 134.05123792 14.44140625 129.74609375 C18.35831213 126.52649517 22.1924324 123.2137463 26.03027344 119.90063477 C30.68703032 115.89079301 35.43246041 112.01031257 40.23828125 108.1796875 C42.89506684 105.87885959 43.1876693 104.88174791 43.6796875 101.375 C43.08316649 95.90869842 40.580181 92.79087846 37.375 88.4375 C36.16850649 86.73882387 34.96278461 85.03959944 33.7578125 83.33984375 C32.8591748 82.08856689 32.8591748 82.08856689 31.94238281 80.81201172 C29.64292208 77.5857343 27.4359669 74.30380644 25.25 71 C24.85546631 70.40735352 24.46093262 69.81470703 24.05444336 69.20410156 C21.1977822 64.90227908 18.38905275 60.57018638 15.5847168 56.23413086 C10.62731266 48.56988266 5.60506352 40.96197296 0.4375 33.4375 C-0.10197266 32.64931885 -0.64144531 31.8611377 -1.19726562 31.04907227 C-3.55373698 27.61134085 -5.92256092 24.18547079 -8.34375 20.79296875 C-9.0759375 19.74753906 -9.808125 18.70210938 -10.5625 17.625 C-11.18769531 16.75230469 -11.81289063 15.87960938 -12.45703125 14.98046875 C-14.09579998 11.75739189 -14.34955035 10.01191847 -13.75 6.4375 C-10.02462251 0.05220298 -7.03437668 -0.30724768 0 0 Z " fill="#FDFDFD" transform="translate(912.75,239.5625)"/>
<path d="M0 0 C43.23 0 86.46 0 131 0 C131 120.78 131 241.56 131 366 C120.94617564 359.29745042 120.94617564 359.29745042 116.375 355.4375 C113.26267902 352.8373331 110.16166706 350.34940599 106.8125 348.0625 C105.884375 347.381875 104.95625 346.70125 104 346 C104 345.34 104 344.68 104 344 C103.43023438 343.73445313 102.86046875 343.46890625 102.2734375 343.1953125 C99.87422821 341.93387257 97.80987227 340.47823392 95.625 338.875 C68.28870632 319.73567243 32.63558529 305.52711706 0 299 C0 200.33 0 101.66 0 0 Z " fill="#FDFDFD" transform="translate(721,55)"/>
<path d="M0 0 C43.23 0 86.46 0 131 0 C131 61.71 131 123.42 131 187 C123.19415305 187 123.19415305 187 119.17114258 186.06884766 C101.72155716 182.33982085 83.51424116 182.62719428 65.76147461 182.62939453 C61.83468092 182.62502468 57.90901818 182.58855821 53.98242188 182.55078125 C37.81510974 182.48171018 22.35797807 183.76278237 6.44364929 186.63876343 C4 187 4 187 0 187 C0 125.29 0 63.58 0 0 Z " fill="#FDFDFD" transform="translate(572,162)"/>
<path d="M0 0 C42.9 0 85.8 0 130 0 C130 28.38 130 56.76 130 86 C123.4 88.31 116.8 90.62 110 93 C102.70546355 96.23699673 102.70546355 96.23699673 95.453125 99.5546875 C89.28161186 102.37052615 82.98580301 104.85932535 76.6875 107.375 C54.92261696 116.1347696 34.83570419 125.92766031 16 140 C14.04421661 141.44096739 12.08591103 142.87851827 10.125 144.3125 C9.26132812 144.94800781 8.39765625 145.58351563 7.5078125 146.23828125 C5.08285788 147.94179298 2.54118388 149.47528967 0 151 C0 101.17 0 51.34 0 0 Z " fill="#FEFEFE" transform="translate(422,269)"/>
<path d="M0 0 C21 0 21 0 25.3671875 3.56640625 C26.70410156 5.93994141 26.70410156 5.93994141 27.875 8.5625 C28.88489223 10.41707167 29.898043 12.26987179 30.9140625 14.12109375 C31.41325195 15.09159668 31.91244141 16.06209961 32.42675781 17.06201172 C35.05304462 21.96653305 38.16373787 26.49560681 41.25 31.125 C43.8075 35.04375 46.365 38.9625 49 43 C57.415 55.87 57.415 55.87 66 69 C66.33 46.23 66.66 23.46 67 0 C74.26 0 81.52 0 89 0 C89 36.3 89 72.6 89 110 C68 110 68 110 63.3125 105.5 C62.15523514 103.36122312 61.05427148 101.19137859 60 99 C58.93469906 97.26788475 57.86769885 95.53655552 56.77050781 93.82446289 C55.50123058 91.8417944 54.26592205 89.84032014 53.03125 87.8359375 C48.64685685 80.7865801 44.06012327 73.86655413 39.50415039 66.92749023 C33.6286574 57.97690788 27.81702039 48.98994061 22 40 C21.67 63.1 21.34 86.2 21 110 C14.07 110 7.14 110 0 110 C0 73.7 0 37.4 0 0 Z " fill="#F9F9F9" transform="translate(887,1114)"/>
<path d="M0 0 C3.74569017 2.91113273 7.39974871 5.91118627 11 9 C10.42308522 12.16854747 9.58353113 13.78226459 7.27734375 16.015625 C6.73916016 16.54414062 6.20097656 17.07265625 5.64648438 17.6171875 C5.08251953 18.15601563 4.51855469 18.69484375 3.9375 19.25 C3.36966797 19.80429688 2.80183594 20.35859375 2.21679688 20.9296875 C0.81787531 22.29334214 -0.59019114 23.64760417 -2 25 C-5.15531328 23.84445885 -7.06237575 22.94504993 -9.625 20.6875 C-19.05235851 12.41401089 -30.88285062 11.15760301 -42.86279297 11.77783203 C-51.52979708 12.67878859 -59.3719968 17.4926213 -65 24 C-71.6837767 33.39906099 -73.85413481 41.50307427 -73 53 C-71.23922334 63.41669552 -65.16514932 72.39912139 -57 79 C-46.52107174 85.51117872 -35.18698547 86.61960598 -23.1875 84 C-14.10048557 81.15863265 -9.58613588 75.02573779 -5 67 C-15.23 67 -25.46 67 -36 67 C-36 60.4 -36 53.8 -36 47 C-17.52 47 0.96 47 20 47 C20 64.26728627 15.29985567 79.37827384 3.125 91.93359375 C-7.68982711 102.07249416 -20.8784769 105.5344972 -35.375 105.375 C-36.94507813 105.39240234 -36.94507813 105.39240234 -38.546875 105.41015625 C-54.34164849 105.35165709 -67.71074311 100.10874898 -79.375 89.5 C-85.24010867 83.27679063 -88.60276308 75.75202837 -92 68 C-92.57234375 66.71029297 -92.57234375 66.71029297 -93.15625 65.39453125 C-97.14856367 54.0644929 -96.74648047 37.59435968 -92.25390625 26.55859375 C-86.11124465 14.02450232 -77.98377756 4.32341962 -66 -3 C-65.35546875 -3.39960937 -64.7109375 -3.79921875 -64.046875 -4.2109375 C-45.34908936 -14.65970006 -17.29424641 -12.42529952 0 0 Z " fill="#FAFAFA" transform="translate(1106,1121)"/>
<path d="M0 0 C7.59 0 15.18 0 23 0 C24.54255199 3.99966049 26.08405364 7.99972092 27.625 12 C28.26501953 13.65902344 28.26501953 13.65902344 28.91796875 15.3515625 C31.27772155 21.47987573 33.60991141 27.61726139 35.90625 33.76953125 C38.85926456 41.67311391 41.91047002 49.53696031 44.98007202 57.39587402 C50.12175542 70.56209022 55.25540045 83.73165017 60.22802734 96.96289062 C60.7657601 98.38187928 61.31376187 99.79700096 61.86962891 101.20898438 C64 106.67962828 64 106.67962828 64 110 C56.74 110 49.48 110 42 110 C39.125 102.3125 39.125 102.3125 38.23095703 99.91918945 C37.99231934 99.28198975 37.75368164 98.64479004 37.5078125 97.98828125 C37.26691895 97.34415283 37.02602539 96.70002441 36.77783203 96.03637695 C35.87805824 93.68075447 34.93650489 91.34126221 34 89 C19.15 88.67 4.3 88.34 -11 88 C-11.99 90.97 -12.98 93.94 -14 97 C-14.84834028 99.17724326 -15.71997314 101.34570294 -16.625 103.5 C-17.05039062 104.5209375 -17.47578125 105.541875 -17.9140625 106.59375 C-19 109 -19 109 -20 110 C-21.63472882 110.08700342 -23.27314055 110.10701063 -24.91015625 110.09765625 C-25.89951172 110.09443359 -26.88886719 110.09121094 -27.90820312 110.08789062 C-28.94912109 110.07951172 -29.99003906 110.07113281 -31.0625 110.0625 C-32.10728516 110.05798828 -33.15207031 110.05347656 -34.22851562 110.04882812 C-36.8190666 110.03699913 -39.40950559 110.02051689 -42 110 C-39.13805459 100.97865035 -35.66445658 92.19755888 -32.25 83.375 C-31.58426473 81.65047088 -30.91874121 79.92586 -30.25341797 78.20117188 C-28.86795395 74.61005508 -27.48157484 71.01929335 -26.09472656 67.42871094 C-24.0547676 62.14479357 -22.02232122 56.85801144 -19.9921875 51.5703125 C-13.38305289 34.35820782 -6.74538392 17.15930998 0 0 Z " fill="#FAFAFA" transform="translate(791,1114)"/>
<path d="M0 0 C7.26 0 14.52 0 22 0 C25.60650652 8.58505357 29.09604426 17.20778498 32.5 25.875 C32.96019531 27.03902344 33.42039062 28.20304687 33.89453125 29.40234375 C36.68779199 36.50745486 39.33579223 43.6419961 41.85546875 50.84814453 C42.97954632 53.94367386 44.20923899 56.97065207 45.5 60 C47.32445476 64.28746869 48.95725323 68.60317171 50.5 73 C52.38516354 78.36185144 54.44953767 83.60288838 56.6640625 88.8359375 C58.2397376 92.56779958 59.78654033 96.3100736 61.3125 100.0625 C61.57925537 100.70630615 61.84601074 101.3501123 62.12084961 102.01342773 C63.26840122 104.84853306 64 106.9087219 64 110 C56.74 110 49.48 110 42 110 C38.82425778 102.61854512 36.33115686 95.77052288 34 88 C19.15 88.33 4.3 88.66 -11 89 C-13.97 95.93 -16.94 102.86 -20 110 C-27.26 110 -34.52 110 -42 110 C-38.62551287 98.75170956 -38.62551287 98.75170956 -37.1875 95.05859375 C-36.84396484 94.17034912 -36.50042969 93.28210449 -36.14648438 92.36694336 C-35.76814453 91.40022705 -35.38980469 90.43351074 -35 89.4375 C-34.58556641 88.36959229 -34.17113281 87.30168457 -33.74414062 86.20141602 C-32.76056929 83.66755381 -31.77551729 81.13430058 -30.7890625 78.6015625 C-28.67328025 73.164943 -26.57173426 67.72282956 -24.46875 62.28125 C-16.42398657 41.47497027 -8.3556813 20.68373568 0 0 Z " fill="#FBFBFB" transform="translate(328,1114)"/>
<path d="M0 0 C46.08333333 0 46.08333333 0 56 7 C62.56560214 13.60724444 65.87334017 21.88864579 66.25 31.125 C66.1254752 39.42665344 64.06391515 48.06952454 58 54 C55.96462956 55.44329976 53.89778721 56.84280337 51.80859375 58.20703125 C50.17942017 59.27594604 50.17942017 59.27594604 48.51733398 60.36645508 C47.27125366 61.17505981 47.27125366 61.17505981 46 62 C48.28318034 66.48354392 50.57534444 70.96238998 52.875 75.4375 C53.38355026 76.42733383 53.38355026 76.42733383 53.90237427 77.43716431 C58.41443938 86.20088278 63.0415016 94.84655617 68.20458984 103.24975586 C71 107.81919943 71 107.81919943 71 110 C63.08 110 55.16 110 47 110 C34.48340571 87.24255583 34.48340571 87.24255583 29.58789062 77.18945312 C26.41927124 69.57348749 26.41927124 69.57348749 21 64 C21 79.18 21 94.36 21 110 C14.07 110 7.14 110 0 110 C0 73.7 0 37.4 0 0 Z " fill="#FCFCFC" transform="translate(425,1114)"/>
<path d="M0 0 C0.98484375 0.32871094 1.9696875 0.65742187 2.984375 0.99609375 C12.68181829 4.62635426 20.83981669 10.55273386 28 18 C26.54616625 21.36716935 24.69038509 23.52270045 22.0625 26.0625 C21.37285156 26.73410156 20.68320313 27.40570312 19.97265625 28.09765625 C19.32167969 28.72542969 18.67070312 29.35320312 18 30 C17.48308594 30.57621094 16.96617187 31.15242188 16.43359375 31.74609375 C15 33 15 33 12 33 C10.87309459 31.83894595 9.74866388 30.67538944 8.63671875 29.5 C-1.0377139 20.63369419 -12.23418034 18.2211535 -24.90234375 18.65625 C-34.01234139 19.23822567 -41.62378764 23.56282959 -48 30 C-50.32556351 33.18706777 -52.26388827 36.45947051 -54 40 C-54.37511719 40.73605469 -54.75023437 41.47210937 -55.13671875 42.23046875 C-56.3803661 46.22026952 -56.38312483 50.02961792 -56.375 54.1875 C-56.37338867 55.03594482 -56.37177734 55.88438965 -56.37011719 56.75854492 C-56.24414283 63.19867536 -55.27770272 68.36966048 -52 74 C-51.443125 75.03125 -50.88625 76.0625 -50.3125 77.125 C-44.22991846 84.6871284 -37.66936367 90.05880199 -28 92 C-19.58537167 92.76898389 -11.73051839 92.61949127 -4 89 C-3.04996094 88.566875 -2.09992188 88.13375 -1.12109375 87.6875 C2.24179232 85.86926874 4.9525938 83.7715979 7.875 81.3125 C9.32519531 80.10013672 9.32519531 80.10013672 10.8046875 78.86328125 C11.52914062 78.24839844 12.25359375 77.63351562 13 77 C17.05928432 78.54771799 18.99481425 81.18900089 21.625 84.5625 C24.35008705 88.33561389 24.35008705 88.33561389 28 91 C28 91.66 28 92.32 28 93 C14.19195219 106.04419836 -1.02644529 112.17718967 -19.75 112.1875 C-20.905 112.19974609 -22.06 112.21199219 -23.25 112.22460938 C-29.54952511 112.23539623 -34.98394616 111.88805289 -41 110 C-42.27810547 109.60941406 -42.27810547 109.60941406 -43.58203125 109.2109375 C-56.15290807 104.49961063 -67.06041838 95.60704797 -72.8203125 83.3125 C-79.6625313 67.51952966 -81.70894187 50.55998031 -76 34 C-68.96403728 17.88057218 -57.37984955 6.52802763 -41 0 C-27.53732598 -4.42827719 -13.42367094 -4.52957203 0 0 Z " fill="#FAFAFA" transform="translate(233,1114)"/>
<path d="M0 0 C6.93 0 13.86 0 21 0 C21.01458252 2.34601318 21.02916504 4.69202637 21.04418945 7.10913086 C21.09466123 14.88443566 21.16127821 22.65954285 21.23571491 30.43465328 C21.28032863 35.14595242 21.31960434 39.85716688 21.34643555 44.56860352 C21.37255861 49.12048815 21.41302398 53.67204533 21.46318626 58.22372627 C21.47979432 59.95509309 21.49134617 61.68651646 21.49761391 63.41795158 C21.40040195 76.03915551 21.40040195 76.03915551 25 88 C28.29792628 91.01933761 31.5478866 92.21273311 36 92.4375 C40.8700193 92.17272225 44.84500001 90.56051723 48.8125 87.6875 C52.14937786 82.94562093 52.30219825 77.57441962 52.31884766 71.97509766 C52.33391609 70.80335495 52.33391609 70.80335495 52.34928894 69.60794067 C52.38001284 67.04332164 52.39712582 64.47880648 52.4140625 61.9140625 C52.43278285 60.12900913 52.45235691 58.34396452 52.4727478 56.55892944 C52.52398343 51.87368956 52.56365494 47.18842102 52.60089111 42.50305176 C52.64098457 37.71680663 52.69205251 32.93067986 52.7421875 28.14453125 C52.83884537 18.76309588 52.92226755 9.38161129 53 0 C60.26 0 67.52 0 75 0 C75.04533608 10.24072332 75.08196502 20.48137906 75.10362434 30.72218037 C75.11402412 35.47831794 75.12811314 40.23438278 75.15087891 44.99047852 C75.17274385 49.58758946 75.18459719 54.18463081 75.18975449 58.78178978 C75.19342588 60.52830283 75.20059462 62.27481244 75.21146011 64.02129555 C75.3036437 79.46457959 75.09320107 91.1725653 64.11328125 103.0390625 C56.26921308 110.51718023 47.54661145 112.67743462 36.9375 112.5 C36.00873047 112.51546875 35.07996094 112.5309375 34.12304688 112.546875 C24.58178852 112.49331004 16.05386627 108.96691803 9.18359375 102.21484375 C0.69969251 93.02247477 -0.17371713 83.61672445 -0.11352539 71.63452148 C-0.11367142 70.8529216 -0.11381744 70.07132172 -0.1139679 69.26603699 C-0.11327883 66.71769297 -0.10553427 64.16942478 -0.09765625 61.62109375 C-0.09578849 59.84033752 -0.09436628 58.05958078 -0.09336853 56.27882385 C-0.08957157 51.61822055 -0.07976572 46.95764897 -0.06866455 42.29705811 C-0.05838943 37.53072539 -0.0538579 32.7643875 -0.04882812 27.99804688 C-0.03814062 18.66534848 -0.02056702 9.33268186 0 0 Z " fill="#FAFAFA" transform="translate(644,1114)"/>
<path d="M0 0 C6.93 0 13.86 0 21 0 C21 36.3 21 72.6 21 110 C14.07 110 7.14 110 0 110 C0 73.7 0 37.4 0 0 Z " fill="#F9F9F9" transform="translate(526,1114)"/>
<path d="M0 0 C2.58276888 2.58276888 3.53277742 5.49042371 4.8203125 8.8359375 C5.21559647 9.8495787 5.21559647 9.8495787 5.61886597 10.88369751 C6.1745291 12.31335549 6.72745026 13.74408178 7.27783203 15.17578125 C8.12035444 17.36294028 8.97558775 19.54482316 9.83203125 21.7265625 C10.37057056 23.11688605 10.90835607 24.50750186 11.4453125 25.8984375 C11.70152374 26.54960541 11.95773499 27.20077332 12.22171021 27.87167358 C13.48417905 31.18661278 14 33.3866087 14 37 C4.76 37 -4.48 37 -14 37 C-13.13321301 32.66606505 -11.91079179 28.84734814 -10.3125 24.765625 C-10.04993408 24.08699402 -9.78736816 23.40836304 -9.5168457 22.70916748 C-8.96402858 21.28305536 -8.4092228 19.8577127 -7.85253906 18.43310547 C-6.99809808 16.24512974 -6.15094574 14.05443308 -5.3046875 11.86328125 C-4.76605258 10.47639636 -4.22700464 9.08967179 -3.6875 7.703125 C-3.30621948 6.7172641 -3.30621948 6.7172641 -2.91723633 5.71148682 C-1.1155612 1.1155612 -1.1155612 1.1155612 0 0 Z " fill="#0D0D0D" transform="translate(339,1144)"/>
<path d="M0 0 C2.01706231 2.53842463 3.50318699 4.83974707 4.6484375 7.87109375 C4.92937256 8.60457031 5.21030762 9.33804687 5.49975586 10.09375 C5.78858643 10.8671875 6.07741699 11.640625 6.375 12.4375 C6.67736572 13.23285156 6.97973145 14.02820312 7.29125977 14.84765625 C7.90461347 16.46121587 8.51571627 18.075633 9.12451172 19.69091797 C9.92456208 21.80103408 10.74034315 23.90386318 11.56640625 26.00390625 C12.24509766 27.73447266 12.24509766 27.73447266 12.9375 29.5 C13.33839844 30.5209375 13.73929688 31.541875 14.15234375 32.59375 C15 35 15 35 15 37 C5.43 37 -4.14 37 -14 37 C-12.18934614 31.56803841 -10.39722686 26.29886794 -8.30078125 20.99609375 C-8.0608696 20.38733902 -7.82095795 19.77858429 -7.57377625 19.15138245 C-6.82223251 17.24587125 -6.06743851 15.3416684 -5.3125 13.4375 C-4.79600607 12.12964332 -4.27972841 10.82170121 -3.76367188 9.51367188 C-2.5112318 6.34160402 -1.25662243 3.17041279 0 0 Z " fill="#0C0C0C" transform="translate(802,1144)"/>
<path d="M0 0 C16.5625 0 16.5625 0 21.4375 4 C24.01619154 7.30072517 24.34990816 9.7513104 24.2734375 13.96484375 C23.82329014 17.31522623 22.51106247 18.81086861 20 21 C13.60282282 23.85831321 6.9002978 23.14227418 0 23 C0 15.41 0 7.82 0 0 Z " fill="#0B0B0B" transform="translate(446,1134)"/>
<path d="M0 0 C3 1 3 1 4.38671875 3.28515625 C4.81597656 4.20167969 5.24523437 5.11820313 5.6875 6.0625 C6.34298828 7.44115234 6.34298828 7.44115234 7.01171875 8.84765625 C7.33785156 9.55792969 7.66398437 10.26820312 8 11 C6.6875 12.5 6.6875 12.5 5 14 C4.01 14 3.02 14 2 14 C1.67 24.56 1.34 35.12 1 46 C0.67 46 0.34 46 0 46 C0 30.82 0 15.64 0 0 Z " fill="#282828" transform="translate(446,1178)"/>
<path d="M0 0 C0.66 0.33 1.32 0.66 2 1 C1.34 2.32 0.68 3.64 0 5 C-1.65 5 -3.3 5 -5 5 C-5 5.66 -5 6.32 -5 7 C-6.6796875 8.69140625 -6.6796875 8.69140625 -8.875 10.5625 C-9.59429688 11.18253906 -10.31359375 11.80257813 -11.0546875 12.44140625 C-13 14 -13 14 -15 15 C-11.98711066 8.26530618 -6.17473811 3.76508421 0 0 Z " fill="#E0E0E0" transform="translate(1038,1119)"/>
<path d="M0 0 C0.99 0.33 1.98 0.66 3 1 C1.71034824 2.37562854 0.37310707 3.70766393 -1 5 C-1.66 5 -2.32 5 -3 5 C-3.33 5.66 -3.66 6.32 -4 7 C-5.64295195 8.36244796 -7.30824337 9.69864875 -9 11 C-9.66 10.67 -10.32 10.34 -11 10 C-5.555 5.05 -5.555 5.05 0 0 Z M-13 11 C-12.34 11.33 -11.68 11.66 -11 12 C-11.99 12.99 -12.98 13.98 -14 15 C-14.66 14.67 -15.32 14.34 -16 14 C-15.01 13.01 -14.02 12.02 -13 11 Z " fill="#1D1D1D" transform="translate(935,461)"/>
<path d="M0 0 C2 2 2 2 2 5 C-5.26 5 -12.52 5 -20 5 C-20 4.67 -20 4.34 -20 4 C-14.06 4 -8.12 4 -2 4 C-1.34 2.68 -0.68 1.36 0 0 Z " fill="#E2E2E2" transform="translate(390,1219)"/>
<path d="M0 0 C0 3.62453269 -0.92469613 5.07920195 -3 8 C-3.99 8.33 -4.98 8.66 -6 9 C-8.16666667 9.83333333 -8.16666667 9.83333333 -9 12 C-9.66 11.34 -10.32 10.68 -11 10 C-10.34 10 -9.68 10 -9 10 C-8.74476563 9.40703125 -8.48953125 8.8140625 -8.2265625 8.203125 C-6.88183502 5.78775462 -5.50785633 4.48788294 -3.375 2.75 C-2.74335937 2.22921875 -2.11171875 1.7084375 -1.4609375 1.171875 C-0.73777344 0.59179688 -0.73777344 0.59179688 0 0 Z " fill="#E2E2E2" transform="translate(900,392)"/>
<path d="M0 0 C0.99 0.33 1.98 0.66 3 1 C-1 5 -1 5 -3.0625 6 C-5.16865601 6.84589942 -5.16865601 6.84589942 -6 9 C-6.66 9 -7.32 9 -8 9 C-8.33 9.66 -8.66 10.32 -9 11 C-9.66 10.34 -10.32 9.68 -11 9 C-9.23977508 7.46690087 -7.46646537 5.94881299 -5.6875 4.4375 C-4.70136719 3.59058594 -3.71523438 2.74367188 -2.69921875 1.87109375 C-1.80847656 1.25363281 -0.91773438 0.63617188 0 0 Z " fill="#1A1A1A" transform="translate(493,489)"/>
<path d="M0 0 C3.25543229 0.34879632 4.01873107 1.02133261 6.25 3.5625 C6.8275 4.366875 7.405 5.17125 8 6 C4.38462395 6 2.88834003 5.10770759 0 3 C0 2.01 0 1.02 0 0 Z " fill="#EDEDED" transform="translate(828,435)"/>
<path d="M0 0 C0.66 0.66 1.32 1.32 2 2 C0.68 3.32 -0.64 4.64 -2 6 C-2.99 5.01 -3.98 4.02 -5 3 C-4.360625 2.690625 -3.72125 2.38125 -3.0625 2.0625 C-1.06389179 1.1654837 -1.06389179 1.1654837 0 0 Z " fill="#F1F1F1" transform="translate(646,712)"/>
<path d="M0 0 C0.66 0.33 1.32 0.66 2 1 C1.67 2.32 1.34 3.64 1 5 C0.01 5 -0.98 5 -2 5 C-2 2 -2 2 0 0 Z " fill="#141414" transform="translate(940,354)"/>
</svg>
