<?xml version="1.0" standalone="no"?>
<!DOCTYPE svg PUBLIC "-//W3C//DTD SVG 20010904//EN"
 "http://www.w3.org/TR/2001/REC-SVG-20010904/DTD/svg10.dtd">
<svg version="1.0" xmlns="http://www.w3.org/2000/svg"
 width="300.000000pt" height="300.000000pt" viewBox="0 0 300.000000 300.000000"
 preserveAspectRatio="xMidYMid meet">
<metadata>
Created by potrace 1.10, written by Peter Selinger 2001-2011
</metadata>
<g transform="translate(0.000000,300.000000) scale(0.100000,-0.100000)"
fill="#000000" stroke="none">
<path d="M0 1500 l0 -1500 1500 0 1500 0 0 1500 0 1500 -1500 0 -1500 0 0
-1500z m2012 1383 c17 -15 18 -42 18 -425 l0 -409 90 76 c53 46 87 82 83 89
-4 6 -33 51 -65 100 -32 48 -58 94 -58 102 0 8 9 23 20 34 20 20 28 20 268 14
264 -7 282 -11 282 -59 0 -22 -102 -465 -120 -520 -11 -33 -42 -58 -62 -50 -8
3 -38 41 -68 85 -29 44 -56 80 -59 80 -10 0 -221 -181 -221 -190 0 -4 13 -36
29 -71 44 -98 61 -183 61 -299 0 -116 -17 -200 -61 -297 -31 -69 -95 -167
-128 -197 -31 -28 -26 -51 25 -141 110 -192 125 -239 82 -269 -26 -19 -167
-22 -198 -6 -11 6 -47 60 -81 121 -53 96 -65 110 -83 106 -11 -3 -52 -15 -91
-27 -136 -40 -295 -37 -433 11 -30 10 -60 19 -67 19 -6 0 -37 -45 -69 -100
-78 -135 -88 -141 -194 -138 -79 3 -86 5 -105 30 -25 34 -20 52 44 158 28 47
65 110 82 140 16 30 35 62 41 70 6 8 16 24 22 35 79 146 431 719 455 739 37
32 51 32 83 4 37 -34 237 -395 243 -439 5 -33 1 -42 -36 -82 -52 -57 -103 -82
-131 -67 -11 6 -41 47 -67 91 -25 44 -50 82 -54 85 -8 5 -179 -275 -179 -294
0 -18 110 -34 205 -30 79 3 100 8 169 41 100 47 189 134 236 230 27 55 34 84
39 155 12 176 -24 285 -129 393 -193 197 -520 195 -707 -5 -118 -125 -154
-262 -121 -454 14 -81 2 -136 -43 -207 -53 -84 -102 -77 -148 19 -53 114 -65
170 -66 306 0 104 4 138 23 200 34 107 93 215 157 287 48 53 54 65 46 82 -7
12 -11 90 -11 189 0 218 -14 204 194 200 l156 -3 0 111 c0 151 -7 146 194 142
l156 -3 0 109 c0 151 -7 146 183 146 126 0 153 -3 169 -17z m-1442 -2475 c24
-13 50 -33 57 -45 13 -19 12 -24 -14 -53 -29 -32 -29 -32 -61 -16 -70 36 -130
3 -106 -59 12 -31 53 -38 96 -15 l39 20 24 -24 c33 -33 31 -59 -5 -90 -56 -47
-144 -47 -200 1 -43 36 -60 74 -60 135 0 68 34 122 93 149 55 24 83 24 137 -3z
m2019 -2 c41 -22 57 -55 41 -86 -10 -19 -9 -24 9 -37 42 -29 15 -129 -43 -164
-67 -41 -136 -36 -192 13 -84 74 -84 187 0 254 20 16 46 32 58 35 35 10 91 3
127 -15z m-1752 -5 c18 -21 103 -237 103 -261 0 -45 -69 -55 -96 -15 -23 35
-75 35 -98 0 -27 -41 -96 -30 -96 16 0 30 90 253 107 267 24 18 61 15 80 -7z
m303 -10 c42 -41 48 -77 22 -124 l-21 -38 25 -46 c23 -43 23 -47 8 -65 -21
-22 -67 -24 -84 -3 -12 14 -15 14 -30 0 -20 -18 -61 -20 -78 -3 -8 8 -12 55
-12 144 0 158 3 164 86 164 48 0 60 -4 84 -29z m154 13 c13 -12 16 -41 16
-148 0 -143 -4 -156 -52 -156 -48 0 -59 32 -58 167 2 91 6 122 18 136 19 21
55 22 76 1z m280 -3 c14 -15 17 -35 15 -100 -1 -45 1 -84 5 -88 3 -3 6 32 6
78 0 94 15 129 55 129 46 0 55 -22 55 -138 0 -87 -4 -113 -19 -138 -38 -63
-123 -69 -177 -13 -28 29 -29 34 -32 140 -3 94 -1 113 14 130 22 24 56 24 78
0z m349 2 c8 -10 37 -74 63 -142 51 -136 51 -154 -3 -159 -23 -2 -36 3 -51 22
-26 34 -70 35 -102 1 -27 -28 -61 -32 -84 -9 -9 8 -16 17 -16 20 0 16 96 252
108 267 8 9 27 17 42 17 15 0 34 -8 43 -17z m247 -34 l40 -51 0 35 c0 60 51
87 92 50 16 -14 18 -33 18 -137 0 -139 -10 -166 -61 -166 -24 0 -36 9 -62 46
l-32 46 -3 -28 c-7 -57 -56 -82 -94 -47 -16 14 -18 33 -18 141 0 103 3 129 17
144 29 32 59 22 103 -33z"/>
<path d="M1690 2520 c0 -234 3 -350 10 -350 34 0 181 -69 236 -111 l64 -48 0
429 0 430 -155 0 -155 0 0 -350z"/>
<path d="M1340 2399 c0 -207 1 -221 18 -214 22 8 232 8 266 -1 l26 -6 0 221 0
221 -155 0 -155 0 0 -221z"/>
<path d="M2113 2423 c-3 -8 24 -59 61 -113 36 -55 66 -105 66 -111 0 -5 -15
-22 -32 -37 -18 -15 -79 -67 -135 -115 l-102 -88 -56 46 c-191 156 -477 189
-719 85 -361 -155 -527 -592 -359 -946 32 -68 60 -73 97 -16 43 66 51 111 36
206 -30 196 19 352 154 487 117 116 319 168 485 124 200 -53 354 -225 383
-430 39 -274 -162 -543 -436 -585 -99 -16 -286 16 -286 48 0 8 135 243 188
326 l25 40 21 -26 c11 -14 40 -60 64 -102 53 -95 69 -98 143 -27 40 39 50 54
44 70 -11 36 -215 394 -235 415 -17 17 -23 18 -43 7 -12 -7 -28 -20 -33 -29
-23 -36 -543 -911 -582 -979 -48 -82 -52 -108 -19 -117 43 -11 142 -6 163 9
12 8 49 61 82 118 33 58 67 107 74 110 8 2 45 -6 83 -18 156 -52 312 -52 465
0 56 19 76 22 87 14 7 -7 39 -57 70 -113 30 -56 63 -107 71 -114 22 -17 153
-16 178 2 19 14 18 16 -10 73 -15 32 -52 99 -82 150 -30 51 -54 104 -54 118 0
17 16 45 43 76 191 218 227 524 92 789 -23 45 -25 55 -13 64 8 6 66 55 130
109 63 53 120 97 124 97 5 0 36 -41 69 -90 61 -90 69 -98 80 -80 13 21 133
545 127 551 -4 4 -119 9 -255 11 -204 4 -250 2 -254 -9z"/>
<path d="M990 2194 c0 -137 3 -174 13 -168 6 4 26 18 44 31 27 21 138 72 223
104 24 9 25 12 25 109 l0 100 -152 0 -153 0 0 -176z"/>
<path d="M456 390 c-107 -33 -129 -183 -34 -244 43 -27 124 -25 162 5 26 20
26 22 10 40 -16 18 -17 18 -42 -1 -36 -29 -78 -26 -113 9 -57 58 -22 146 59
146 24 0 48 -7 60 -18 18 -16 20 -16 35 1 16 18 16 20 -2 36 -17 16 -75 37
-96 35 -5 0 -23 -5 -39 -9z"/>
<path d="M2465 389 c-107 -31 -126 -182 -31 -244 33 -22 103 -22 142 -2 30 16
64 69 64 101 0 13 -12 16 -65 16 -61 0 -65 -1 -65 -23 0 -20 4 -23 35 -19 40
5 46 -9 13 -32 -35 -25 -76 -20 -109 13 -57 58 -22 146 59 146 24 0 48 -7 60
-18 18 -16 20 -16 35 1 16 18 16 20 -2 36 -17 16 -75 37 -96 35 -5 0 -24 -5
-40 -10z"/>
<path d="M2468 299 c-22 -12 -24 -62 -3 -79 13 -11 15 -8 15 17 0 35 16 53 48
53 13 0 20 4 17 10 -8 13 -55 12 -77 -1z"/>
<path d="M761 368 c-13 -35 -82 -211 -88 -225 -3 -9 4 -13 21 -13 18 0 30 8
38 25 10 22 17 25 63 25 46 0 53 -3 63 -25 8 -17 20 -25 37 -25 14 0 25 1 25
3 0 1 -22 58 -49 127 -44 112 -52 125 -75 128 -20 3 -28 -2 -35 -20z m68 -130
c1 -5 -15 -8 -35 -8 -30 0 -35 3 -29 18 4 9 12 30 18 47 l10 29 18 -39 c10
-22 18 -43 18 -47z"/>
<path d="M995 260 l0 -130 29 0 29 0 -6 55 c-3 30 -3 55 1 55 4 -1 18 -24 32
-53 20 -42 30 -53 53 -55 15 -2 27 -1 27 1 0 2 -13 28 -29 57 l-29 53 24 19
c17 14 24 29 24 53 0 48 -37 75 -104 75 l-51 0 0 -130z m100 55 c0 -14 -8 -21
-25 -23 -21 -2 -25 1 -25 23 0 22 4 25 25 23 17 -2 25 -9 25 -23z"/>
<path d="M1230 260 l0 -130 28 0 27 0 0 130 0 130 -27 0 -28 0 0 -130z"/>
<path d="M1510 282 c0 -100 2 -110 23 -129 31 -28 65 -34 103 -18 39 16 42 27
46 158 l3 97 -27 0 -28 0 0 -104 c0 -97 -2 -105 -20 -111 -40 -13 -50 10 -50
116 0 99 0 99 -25 99 l-25 0 0 -108z"/>
<path d="M1804 260 l-51 -130 29 0 c21 0 29 6 34 25 6 23 11 25 64 25 53 0 58
-2 64 -25 5 -19 13 -25 35 -25 l29 0 -38 94 c-21 52 -43 110 -50 130 -9 29
-16 36 -38 36 -25 0 -30 -9 -78 -130z m105 -8 c11 -21 10 -22 -24 -22 -39 0
-40 2 -12 70 l10 25 7 -26 c4 -14 13 -35 19 -47z"/>
<path d="M2080 260 l0 -130 26 0 25 0 -3 85 c-2 47 -2 85 -1 85 1 0 27 -38 57
-85 45 -70 60 -85 81 -85 l25 0 0 130 0 130 -27 0 -28 0 3 -87 2 -88 -56 88
c-45 70 -61 87 -80 87 l-24 0 0 -130z"/>
</g>
</svg>
